# xmcd
#
# Track frame offsets:
# 150
# 15575
# 33100
# 49012
# 66150
# 110300
# 134662
# 157625
# 174475
# 194450
#
# Disc length: 2862 seconds
#
# Revision: 0
# Processed by: cddbd v1.4PL0 Copyright (c) Steve Scherf et al.
# Submitted via: Axialis_AX_CDPlayer 2.6
#
DISCID=790b2c0a
DTITLE=Muddy Waters - Deep Down In The Blues
DYEAR=1900
DGENRE=
TTITLE0=I'm Ready
TTITLE1=Rock Me
TTITLE2=I Can't Be Satisfied
TTITLE3=Mean Old Frisco Blues
TTITLE4=Deep Down In Florida
TTITLE5=Mannish Boy
TTITLE6=Screamin' And Cryin'
TTITLE7=I Feel Like Going Home
TTITLE8=Jealous Hearted Man
TTITLE9=Too Young To Know
EXTD=
EXTT0=
EXTT1=
EXTT2=
EXTT3=
EXTT4=
EXTT5=
EXTT6=
EXTT7=
EXTT8=
EXTT9=
PLAYORDER=
